<?xml version="1.0" encoding="utf-8" standalone="no"?>
<!DOCTYPE svg PUBLIC "-//W3C//DTD SVG 1.1//EN"
  "http://www.w3.org/Graphics/SVG/1.1/DTD/svg11.dtd">
<!-- Created with matplotlib (http://matplotlib.org/) -->
<svg height="288pt" version="1.1" viewBox="0 0 432 288" width="432pt" xmlns="http://www.w3.org/2000/svg" xmlns:xlink="http://www.w3.org/1999/xlink">
 <defs>
  <style type="text/css">
*{stroke-linecap:butt;stroke-linejoin:round;}
  </style>
 </defs>
 <g id="figure_1">
  <g id="patch_1">
   <path d="M 0 288 
L 432 288 
L 432 0 
L 0 0 
z
" style="fill:#ffffff;"/>
  </g>
  <g id="axes_1">
   <g id="patch_2">
    <path d="M 54 252 
L 388.8 252 
L 388.8 34.56 
L 54 34.56 
z
" style="fill:#ffffff;"/>
   </g>
   <g id="PathCollection_1">
    <defs>
     <path d="M 0 2.236068 
C 0.593012 2.236068 1.161816 2.000462 1.581139 1.581139 
C 2.000462 1.161816 2.236068 0.593012 2.236068 0 
C 2.236068 -0.593012 2.000462 -1.161816 1.581139 -1.581139 
C 1.161816 -2.000462 0.593012 -2.236068 0 -2.236068 
C -0.593012 -2.236068 -1.161816 -2.000462 -1.581139 -1.581139 
C -2.000462 -1.161816 -2.236068 -0.593012 -2.236068 0 
C -2.236068 0.593012 -2.000462 1.161816 -1.581139 1.581139 
C -1.161816 2.000462 -0.593012 2.236068 0 2.236068 
z
" id="m50cf203363" style="stroke:#1f77b4;"/>
    </defs>
    <g clip-path="url(#p1a67f8cc7b)">
     <use style="fill:#1f77b4;stroke:#1f77b4;" x="69.228396" xlink:href="#m50cf203363" y="203.453791"/>
     <use style="fill:#1f77b4;stroke:#1f77b4;" x="70.757759" xlink:href="#m50cf203363" y="197.711926"/>
     <use style="fill:#1f77b4;stroke:#1f77b4;" x="72.287122" xlink:href="#m50cf203363" y="187.245345"/>
     <use style="fill:#1f77b4;stroke:#1f77b4;" x="73.816485" xlink:href="#m50cf203363" y="196.706675"/>
     <use style="fill:#1f77b4;stroke:#1f77b4;" x="75.345848" xlink:href="#m50cf203363" y="234.373079"/>
     <use style="fill:#1f77b4;stroke:#1f77b4;" x="76.87521" xlink:href="#m50cf203363" y="242.101702"/>
     <use style="fill:#1f77b4;stroke:#1f77b4;" x="78.404573" xlink:href="#m50cf203363" y="197.59252"/>
     <use style="fill:#1f77b4;stroke:#1f77b4;" x="79.933936" xlink:href="#m50cf203363" y="198.638227"/>
     <use style="fill:#1f77b4;stroke:#1f77b4;" x="81.463299" xlink:href="#m50cf203363" y="228.600639"/>
     <use style="fill:#1f77b4;stroke:#1f77b4;" x="82.992662" xlink:href="#m50cf203363" y="222.005549"/>
     <use style="fill:#1f77b4;stroke:#1f77b4;" x="84.522025" xlink:href="#m50cf203363" y="223.990225"/>
     <use style="fill:#1f77b4;stroke:#1f77b4;" x="86.051388" xlink:href="#m50cf203363" y="219.386269"/>
     <use style="fill:#1f77b4;stroke:#1f77b4;" x="87.58075" xlink:href="#m50cf203363" y="214.526449"/>
     <use style="fill:#1f77b4;stroke:#1f77b4;" x="89.110113" xlink:href="#m50cf203363" y="198.052682"/>
     <use style="fill:#1f77b4;stroke:#1f77b4;" x="90.639476" xlink:href="#m50cf203363" y="197.608884"/>
     <use style="fill:#1f77b4;stroke:#1f77b4;" x="92.168839" xlink:href="#m50cf203363" y="206.465358"/>
     <use style="fill:#1f77b4;stroke:#1f77b4;" x="93.698202" xlink:href="#m50cf203363" y="182.38414"/>
     <use style="fill:#1f77b4;stroke:#1f77b4;" x="95.227565" xlink:href="#m50cf203363" y="196.51368"/>
     <use style="fill:#1f77b4;stroke:#1f77b4;" x="96.756928" xlink:href="#m50cf203363" y="191.315643"/>
     <use style="fill:#1f77b4;stroke:#1f77b4;" x="98.28629" xlink:href="#m50cf203363" y="191.188826"/>
     <use style="fill:#1f77b4;stroke:#1f77b4;" x="99.815653" xlink:href="#m50cf203363" y="228.217837"/>
     <use style="fill:#1f77b4;stroke:#1f77b4;" x="101.345016" xlink:href="#m50cf203363" y="203.956816"/>
     <use style="fill:#1f77b4;stroke:#1f77b4;" x="102.874379" xlink:href="#m50cf203363" y="219.612874"/>
     <use style="fill:#1f77b4;stroke:#1f77b4;" x="104.403742" xlink:href="#m50cf203363" y="227.356663"/>
     <use style="fill:#1f77b4;stroke:#1f77b4;" x="105.933105" xlink:href="#m50cf203363" y="208.573326"/>
     <use style="fill:#1f77b4;stroke:#1f77b4;" x="107.462467" xlink:href="#m50cf203363" y="212.846582"/>
     <use style="fill:#1f77b4;stroke:#1f77b4;" x="108.99183" xlink:href="#m50cf203363" y="207.695229"/>
     <use style="fill:#1f77b4;stroke:#1f77b4;" x="110.521193" xlink:href="#m50cf203363" y="201.576148"/>
     <use style="fill:#1f77b4;stroke:#1f77b4;" x="112.050556" xlink:href="#m50cf203363" y="217.635917"/>
     <use style="fill:#1f77b4;stroke:#1f77b4;" x="113.579919" xlink:href="#m50cf203363" y="214.27388"/>
     <use style="fill:#1f77b4;stroke:#1f77b4;" x="115.109282" xlink:href="#m50cf203363" y="219.054372"/>
     <use style="fill:#1f77b4;stroke:#1f77b4;" x="116.638645" xlink:href="#m50cf203363" y="210.809"/>
     <use style="fill:#1f77b4;stroke:#1f77b4;" x="118.168007" xlink:href="#m50cf203363" y="216.5838"/>
     <use style="fill:#1f77b4;stroke:#1f77b4;" x="119.69737" xlink:href="#m50cf203363" y="223.108241"/>
     <use style="fill:#1f77b4;stroke:#1f77b4;" x="121.226733" xlink:href="#m50cf203363" y="220.443314"/>
     <use style="fill:#1f77b4;stroke:#1f77b4;" x="122.756096" xlink:href="#m50cf203363" y="211.526377"/>
     <use style="fill:#1f77b4;stroke:#1f77b4;" x="125.814822" xlink:href="#m50cf203363" y="196.728723"/>
     <use style="fill:#1f77b4;stroke:#1f77b4;" x="127.344185" xlink:href="#m50cf203363" y="191.253186"/>
     <use style="fill:#1f77b4;stroke:#1f77b4;" x="128.873547" xlink:href="#m50cf203363" y="192.728741"/>
     <use style="fill:#1f77b4;stroke:#1f77b4;" x="130.40291" xlink:href="#m50cf203363" y="230.297272"/>
     <use style="fill:#1f77b4;stroke:#1f77b4;" x="131.932273" xlink:href="#m50cf203363" y="219.159144"/>
     <use style="fill:#1f77b4;stroke:#1f77b4;" x="133.461636" xlink:href="#m50cf203363" y="224.769298"/>
     <use style="fill:#1f77b4;stroke:#1f77b4;" x="134.990999" xlink:href="#m50cf203363" y="226.39503"/>
     <use style="fill:#1f77b4;stroke:#1f77b4;" x="136.520362" xlink:href="#m50cf203363" y="223.508913"/>
     <use style="fill:#1f77b4;stroke:#1f77b4;" x="138.049725" xlink:href="#m50cf203363" y="210.178357"/>
     <use style="fill:#1f77b4;stroke:#1f77b4;" x="139.579087" xlink:href="#m50cf203363" y="219.541198"/>
     <use style="fill:#1f77b4;stroke:#1f77b4;" x="141.10845" xlink:href="#m50cf203363" y="207.885199"/>
     <use style="fill:#1f77b4;stroke:#1f77b4;" x="142.637813" xlink:href="#m50cf203363" y="204.139116"/>
     <use style="fill:#1f77b4;stroke:#1f77b4;" x="144.167176" xlink:href="#m50cf203363" y="210.297597"/>
     <use style="fill:#1f77b4;stroke:#1f77b4;" x="145.696539" xlink:href="#m50cf203363" y="218.604789"/>
     <use style="fill:#1f77b4;stroke:#1f77b4;" x="147.225902" xlink:href="#m50cf203363" y="215.916221"/>
     <use style="fill:#1f77b4;stroke:#1f77b4;" x="148.755264" xlink:href="#m50cf203363" y="226.065881"/>
     <use style="fill:#1f77b4;stroke:#1f77b4;" x="150.284627" xlink:href="#m50cf203363" y="216.392795"/>
     <use style="fill:#1f77b4;stroke:#1f77b4;" x="151.81399" xlink:href="#m50cf203363" y="213.935608"/>
     <use style="fill:#1f77b4;stroke:#1f77b4;" x="153.343353" xlink:href="#m50cf203363" y="191.028307"/>
     <use style="fill:#1f77b4;stroke:#1f77b4;" x="154.872716" xlink:href="#m50cf203363" y="213.037392"/>
     <use style="fill:#1f77b4;stroke:#1f77b4;" x="156.402079" xlink:href="#m50cf203363" y="186.736648"/>
     <use style="fill:#1f77b4;stroke:#1f77b4;" x="157.931442" xlink:href="#m50cf203363" y="189.251582"/>
     <use style="fill:#1f77b4;stroke:#1f77b4;" x="159.460804" xlink:href="#m50cf203363" y="193.100155"/>
     <use style="fill:#1f77b4;stroke:#1f77b4;" x="160.990167" xlink:href="#m50cf203363" y="205.116742"/>
     <use style="fill:#1f77b4;stroke:#1f77b4;" x="162.51953" xlink:href="#m50cf203363" y="205.114449"/>
     <use style="fill:#1f77b4;stroke:#1f77b4;" x="164.048893" xlink:href="#m50cf203363" y="195.486695"/>
     <use style="fill:#1f77b4;stroke:#1f77b4;" x="165.578256" xlink:href="#m50cf203363" y="205.851833"/>
     <use style="fill:#1f77b4;stroke:#1f77b4;" x="167.107619" xlink:href="#m50cf203363" y="199.114449"/>
     <use style="fill:#1f77b4;stroke:#1f77b4;" x="168.636982" xlink:href="#m50cf203363" y="190.204185"/>
     <use style="fill:#1f77b4;stroke:#1f77b4;" x="170.166344" xlink:href="#m50cf203363" y="187.513982"/>
     <use style="fill:#1f77b4;stroke:#1f77b4;" x="171.695707" xlink:href="#m50cf203363" y="180.315086"/>
     <use style="fill:#1f77b4;stroke:#1f77b4;" x="173.22507" xlink:href="#m50cf203363" y="172.060268"/>
     <use style="fill:#1f77b4;stroke:#1f77b4;" x="174.754433" xlink:href="#m50cf203363" y="184.98928"/>
     <use style="fill:#1f77b4;stroke:#1f77b4;" x="176.283796" xlink:href="#m50cf203363" y="184.592121"/>
     <use style="fill:#1f77b4;stroke:#1f77b4;" x="177.813159" xlink:href="#m50cf203363" y="176.111693"/>
     <use style="fill:#1f77b4;stroke:#1f77b4;" x="179.342522" xlink:href="#m50cf203363" y="174.147174"/>
     <use style="fill:#1f77b4;stroke:#1f77b4;" x="180.871884" xlink:href="#m50cf203363" y="177.210159"/>
     <use style="fill:#1f77b4;stroke:#1f77b4;" x="182.401247" xlink:href="#m50cf203363" y="164.193488"/>
     <use style="fill:#1f77b4;stroke:#1f77b4;" x="183.93061" xlink:href="#m50cf203363" y="183.04307"/>
     <use style="fill:#1f77b4;stroke:#1f77b4;" x="185.459973" xlink:href="#m50cf203363" y="173.785828"/>
     <use style="fill:#1f77b4;stroke:#1f77b4;" x="186.989336" xlink:href="#m50cf203363" y="172.655066"/>
     <use style="fill:#1f77b4;stroke:#1f77b4;" x="188.518699" xlink:href="#m50cf203363" y="164.049161"/>
     <use style="fill:#1f77b4;stroke:#1f77b4;" x="190.048062" xlink:href="#m50cf203363" y="157.689801"/>
     <use style="fill:#1f77b4;stroke:#1f77b4;" x="191.577424" xlink:href="#m50cf203363" y="182.759376"/>
     <use style="fill:#1f77b4;stroke:#1f77b4;" x="193.106787" xlink:href="#m50cf203363" y="173.467398"/>
     <use style="fill:#1f77b4;stroke:#1f77b4;" x="194.63615" xlink:href="#m50cf203363" y="183.031659"/>
     <use style="fill:#1f77b4;stroke:#1f77b4;" x="196.165513" xlink:href="#m50cf203363" y="178.740775"/>
     <use style="fill:#1f77b4;stroke:#1f77b4;" x="197.694876" xlink:href="#m50cf203363" y="184.238753"/>
     <use style="fill:#1f77b4;stroke:#1f77b4;" x="199.224239" xlink:href="#m50cf203363" y="163.683564"/>
     <use style="fill:#1f77b4;stroke:#1f77b4;" x="200.753601" xlink:href="#m50cf203363" y="153.98846"/>
     <use style="fill:#1f77b4;stroke:#1f77b4;" x="202.282964" xlink:href="#m50cf203363" y="162.361399"/>
     <use style="fill:#1f77b4;stroke:#1f77b4;" x="203.812327" xlink:href="#m50cf203363" y="164.845038"/>
     <use style="fill:#1f77b4;stroke:#1f77b4;" x="205.34169" xlink:href="#m50cf203363" y="161.299188"/>
     <use style="fill:#1f77b4;stroke:#1f77b4;" x="206.871053" xlink:href="#m50cf203363" y="150.456831"/>
     <use style="fill:#1f77b4;stroke:#1f77b4;" x="208.400416" xlink:href="#m50cf203363" y="159.870036"/>
     <use style="fill:#1f77b4;stroke:#1f77b4;" x="209.929779" xlink:href="#m50cf203363" y="148.763886"/>
     <use style="fill:#1f77b4;stroke:#1f77b4;" x="211.459141" xlink:href="#m50cf203363" y="147.736063"/>
     <use style="fill:#1f77b4;stroke:#1f77b4;" x="212.988504" xlink:href="#m50cf203363" y="130.661628"/>
     <use style="fill:#1f77b4;stroke:#1f77b4;" x="214.517867" xlink:href="#m50cf203363" y="141.325438"/>
     <use style="fill:#1f77b4;stroke:#1f77b4;" x="216.04723" xlink:href="#m50cf203363" y="142.874057"/>
     <use style="fill:#1f77b4;stroke:#1f77b4;" x="217.576593" xlink:href="#m50cf203363" y="141.228835"/>
     <use style="fill:#1f77b4;stroke:#1f77b4;" x="222.164681" xlink:href="#m50cf203363" y="156.168708"/>
     <use style="fill:#1f77b4;stroke:#1f77b4;" x="223.694044" xlink:href="#m50cf203363" y="130.764306"/>
     <use style="fill:#1f77b4;stroke:#1f77b4;" x="225.223407" xlink:href="#m50cf203363" y="136.864974"/>
     <use style="fill:#1f77b4;stroke:#1f77b4;" x="226.75277" xlink:href="#m50cf203363" y="141.809609"/>
     <use style="fill:#1f77b4;stroke:#1f77b4;" x="228.282133" xlink:href="#m50cf203363" y="115.574928"/>
     <use style="fill:#1f77b4;stroke:#1f77b4;" x="229.811496" xlink:href="#m50cf203363" y="136.524063"/>
     <use style="fill:#1f77b4;stroke:#1f77b4;" x="231.340859" xlink:href="#m50cf203363" y="133.112787"/>
     <use style="fill:#1f77b4;stroke:#1f77b4;" x="232.870221" xlink:href="#m50cf203363" y="139.379723"/>
     <use style="fill:#1f77b4;stroke:#1f77b4;" x="234.399584" xlink:href="#m50cf203363" y="140.576813"/>
     <use style="fill:#1f77b4;stroke:#1f77b4;" x="235.928947" xlink:href="#m50cf203363" y="126.947619"/>
     <use style="fill:#1f77b4;stroke:#1f77b4;" x="237.45831" xlink:href="#m50cf203363" y="126.682939"/>
     <use style="fill:#1f77b4;stroke:#1f77b4;" x="238.987673" xlink:href="#m50cf203363" y="129.439119"/>
     <use style="fill:#1f77b4;stroke:#1f77b4;" x="240.517036" xlink:href="#m50cf203363" y="132.056146"/>
     <use style="fill:#1f77b4;stroke:#1f77b4;" x="242.046399" xlink:href="#m50cf203363" y="126.928357"/>
     <use style="fill:#1f77b4;stroke:#1f77b4;" x="243.575761" xlink:href="#m50cf203363" y="126.257745"/>
     <use style="fill:#1f77b4;stroke:#1f77b4;" x="245.105124" xlink:href="#m50cf203363" y="131.529463"/>
     <use style="fill:#1f77b4;stroke:#1f77b4;" x="246.634487" xlink:href="#m50cf203363" y="134.560363"/>
     <use style="fill:#1f77b4;stroke:#1f77b4;" x="248.16385" xlink:href="#m50cf203363" y="126.67045"/>
     <use style="fill:#1f77b4;stroke:#1f77b4;" x="249.693213" xlink:href="#m50cf203363" y="123.257591"/>
     <use style="fill:#1f77b4;stroke:#1f77b4;" x="251.222576" xlink:href="#m50cf203363" y="119.322984"/>
     <use style="fill:#1f77b4;stroke:#1f77b4;" x="252.751938" xlink:href="#m50cf203363" y="141.514265"/>
     <use style="fill:#1f77b4;stroke:#1f77b4;" x="254.281301" xlink:href="#m50cf203363" y="147.835652"/>
     <use style="fill:#1f77b4;stroke:#1f77b4;" x="255.810664" xlink:href="#m50cf203363" y="133.322277"/>
     <use style="fill:#1f77b4;stroke:#1f77b4;" x="257.340027" xlink:href="#m50cf203363" y="127.848257"/>
     <use style="fill:#1f77b4;stroke:#1f77b4;" x="258.86939" xlink:href="#m50cf203363" y="128.49184"/>
     <use style="fill:#1f77b4;stroke:#1f77b4;" x="260.398753" xlink:href="#m50cf203363" y="113.354862"/>
     <use style="fill:#1f77b4;stroke:#1f77b4;" x="261.928116" xlink:href="#m50cf203363" y="115.851607"/>
     <use style="fill:#1f77b4;stroke:#1f77b4;" x="263.457478" xlink:href="#m50cf203363" y="120.209569"/>
     <use style="fill:#1f77b4;stroke:#1f77b4;" x="264.986841" xlink:href="#m50cf203363" y="107.593653"/>
     <use style="fill:#1f77b4;stroke:#1f77b4;" x="266.516204" xlink:href="#m50cf203363" y="104.733437"/>
     <use style="fill:#1f77b4;stroke:#1f77b4;" x="268.045567" xlink:href="#m50cf203363" y="99.271171"/>
     <use style="fill:#1f77b4;stroke:#1f77b4;" x="269.57493" xlink:href="#m50cf203363" y="109.685354"/>
     <use style="fill:#1f77b4;stroke:#1f77b4;" x="271.104293" xlink:href="#m50cf203363" y="100.438282"/>
     <use style="fill:#1f77b4;stroke:#1f77b4;" x="272.633656" xlink:href="#m50cf203363" y="97.111803"/>
     <use style="fill:#1f77b4;stroke:#1f77b4;" x="274.163018" xlink:href="#m50cf203363" y="100.788622"/>
     <use style="fill:#1f77b4;stroke:#1f77b4;" x="275.692381" xlink:href="#m50cf203363" y="90.017265"/>
     <use style="fill:#1f77b4;stroke:#1f77b4;" x="278.751107" xlink:href="#m50cf203363" y="98.836705"/>
     <use style="fill:#1f77b4;stroke:#1f77b4;" x="281.809833" xlink:href="#m50cf203363" y="90.802162"/>
     <use style="fill:#1f77b4;stroke:#1f77b4;" x="283.339196" xlink:href="#m50cf203363" y="101.751447"/>
     <use style="fill:#1f77b4;stroke:#1f77b4;" x="286.397921" xlink:href="#m50cf203363" y="99.555984"/>
     <use style="fill:#1f77b4;stroke:#1f77b4;" x="287.927284" xlink:href="#m50cf203363" y="102.866302"/>
     <use style="fill:#1f77b4;stroke:#1f77b4;" x="289.456647" xlink:href="#m50cf203363" y="94.963059"/>
     <use style="fill:#1f77b4;stroke:#1f77b4;" x="290.98601" xlink:href="#m50cf203363" y="97.719628"/>
     <use style="fill:#1f77b4;stroke:#1f77b4;" x="292.515373" xlink:href="#m50cf203363" y="88.267031"/>
     <use style="fill:#1f77b4;stroke:#1f77b4;" x="294.044736" xlink:href="#m50cf203363" y="92.771196"/>
     <use style="fill:#1f77b4;stroke:#1f77b4;" x="295.574098" xlink:href="#m50cf203363" y="86.467887"/>
     <use style="fill:#1f77b4;stroke:#1f77b4;" x="297.103461" xlink:href="#m50cf203363" y="85.456942"/>
     <use style="fill:#1f77b4;stroke:#1f77b4;" x="298.632824" xlink:href="#m50cf203363" y="87.213142"/>
     <use style="fill:#1f77b4;stroke:#1f77b4;" x="300.162187" xlink:href="#m50cf203363" y="88.085579"/>
     <use style="fill:#1f77b4;stroke:#1f77b4;" x="301.69155" xlink:href="#m50cf203363" y="82.663095"/>
     <use style="fill:#1f77b4;stroke:#1f77b4;" x="303.220913" xlink:href="#m50cf203363" y="82.756324"/>
     <use style="fill:#1f77b4;stroke:#1f77b4;" x="304.750275" xlink:href="#m50cf203363" y="74.395251"/>
     <use style="fill:#1f77b4;stroke:#1f77b4;" x="306.279638" xlink:href="#m50cf203363" y="80.922652"/>
     <use style="fill:#1f77b4;stroke:#1f77b4;" x="307.809001" xlink:href="#m50cf203363" y="84.568473"/>
     <use style="fill:#1f77b4;stroke:#1f77b4;" x="309.338364" xlink:href="#m50cf203363" y="80.844233"/>
     <use style="fill:#1f77b4;stroke:#1f77b4;" x="310.867727" xlink:href="#m50cf203363" y="76.576398"/>
     <use style="fill:#1f77b4;stroke:#1f77b4;" x="312.39709" xlink:href="#m50cf203363" y="76.185856"/>
     <use style="fill:#1f77b4;stroke:#1f77b4;" x="313.926453" xlink:href="#m50cf203363" y="79.434454"/>
     <use style="fill:#1f77b4;stroke:#1f77b4;" x="315.455815" xlink:href="#m50cf203363" y="81.11114"/>
     <use style="fill:#1f77b4;stroke:#1f77b4;" x="316.985178" xlink:href="#m50cf203363" y="74.781056"/>
     <use style="fill:#1f77b4;stroke:#1f77b4;" x="318.514541" xlink:href="#m50cf203363" y="64.755418"/>
     <use style="fill:#1f77b4;stroke:#1f77b4;" x="320.043904" xlink:href="#m50cf203363" y="66.671489"/>
     <use style="fill:#1f77b4;stroke:#1f77b4;" x="321.573267" xlink:href="#m50cf203363" y="68.596707"/>
     <use style="fill:#1f77b4;stroke:#1f77b4;" x="323.10263" xlink:href="#m50cf203363" y="72.6599"/>
     <use style="fill:#1f77b4;stroke:#1f77b4;" x="324.631993" xlink:href="#m50cf203363" y="71.612136"/>
     <use style="fill:#1f77b4;stroke:#1f77b4;" x="326.161355" xlink:href="#m50cf203363" y="68.579301"/>
     <use style="fill:#1f77b4;stroke:#1f77b4;" x="327.690718" xlink:href="#m50cf203363" y="71.571119"/>
     <use style="fill:#1f77b4;stroke:#1f77b4;" x="329.220081" xlink:href="#m50cf203363" y="66.089895"/>
     <use style="fill:#1f77b4;stroke:#1f77b4;" x="330.749444" xlink:href="#m50cf203363" y="72.146646"/>
     <use style="fill:#1f77b4;stroke:#1f77b4;" x="332.278807" xlink:href="#m50cf203363" y="65.752081"/>
     <use style="fill:#1f77b4;stroke:#1f77b4;" x="333.80817" xlink:href="#m50cf203363" y="69.162742"/>
     <use style="fill:#1f77b4;stroke:#1f77b4;" x="335.337533" xlink:href="#m50cf203363" y="62.250965"/>
     <use style="fill:#1f77b4;stroke:#1f77b4;" x="336.866895" xlink:href="#m50cf203363" y="67.709848"/>
     <use style="fill:#1f77b4;stroke:#1f77b4;" x="339.925621" xlink:href="#m50cf203363" y="55.411926"/>
     <use style="fill:#1f77b4;stroke:#1f77b4;" x="341.454984" xlink:href="#m50cf203363" y="59.481314"/>
     <use style="fill:#1f77b4;stroke:#1f77b4;" x="342.984347" xlink:href="#m50cf203363" y="52.698743"/>
     <use style="fill:#1f77b4;stroke:#1f77b4;" x="344.51371" xlink:href="#m50cf203363" y="56.810338"/>
     <use style="fill:#1f77b4;stroke:#1f77b4;" x="346.043072" xlink:href="#m50cf203363" y="55.0819"/>
     <use style="fill:#1f77b4;stroke:#1f77b4;" x="347.572435" xlink:href="#m50cf203363" y="50.744322"/>
     <use style="fill:#1f77b4;stroke:#1f77b4;" x="349.101798" xlink:href="#m50cf203363" y="57.880074"/>
     <use style="fill:#1f77b4;stroke:#1f77b4;" x="350.631161" xlink:href="#m50cf203363" y="52.565004"/>
     <use style="fill:#1f77b4;stroke:#1f77b4;" x="352.160524" xlink:href="#m50cf203363" y="55.344024"/>
     <use style="fill:#1f77b4;stroke:#1f77b4;" x="353.689887" xlink:href="#m50cf203363" y="44.458298"/>
     <use style="fill:#1f77b4;stroke:#1f77b4;" x="355.21925" xlink:href="#m50cf203363" y="55.084322"/>
     <use style="fill:#1f77b4;stroke:#1f77b4;" x="356.748612" xlink:href="#m50cf203363" y="54.855087"/>
     <use style="fill:#1f77b4;stroke:#1f77b4;" x="358.277975" xlink:href="#m50cf203363" y="47.824821"/>
     <use style="fill:#1f77b4;stroke:#1f77b4;" x="359.807338" xlink:href="#m50cf203363" y="48.073229"/>
     <use style="fill:#1f77b4;stroke:#1f77b4;" x="361.336701" xlink:href="#m50cf203363" y="45.030386"/>
     <use style="fill:#1f77b4;stroke:#1f77b4;" x="362.866064" xlink:href="#m50cf203363" y="48.848767"/>
     <use style="fill:#1f77b4;stroke:#1f77b4;" x="364.395427" xlink:href="#m50cf203363" y="47.410456"/>
     <use style="fill:#1f77b4;stroke:#1f77b4;" x="365.92479" xlink:href="#m50cf203363" y="54.271858"/>
     <use style="fill:#1f77b4;stroke:#1f77b4;" x="367.454152" xlink:href="#m50cf203363" y="54.269941"/>
     <use style="fill:#1f77b4;stroke:#1f77b4;" x="368.983515" xlink:href="#m50cf203363" y="51.480688"/>
     <use style="fill:#1f77b4;stroke:#1f77b4;" x="370.512878" xlink:href="#m50cf203363" y="50.842237"/>
     <use style="fill:#1f77b4;stroke:#1f77b4;" x="372.042241" xlink:href="#m50cf203363" y="49.269208"/>
     <use style="fill:#1f77b4;stroke:#1f77b4;" x="373.571604" xlink:href="#m50cf203363" y="53.058385"/>
    </g>
   </g>
   <g id="matplotlib.axis_1">
    <g id="xtick_1">
     <g id="line2d_1">
      <defs>
       <path d="M 0 0 
L 0 3.5 
" id="m5a0d46215d" style="stroke:#000000;stroke-width:0.8;"/>
      </defs>
      <g>
       <use style="stroke:#000000;stroke-width:0.8;" x="67.699033" xlink:href="#m5a0d46215d" y="252"/>
      </g>
     </g>
     <g id="text_1">
      <!-- 0 -->
      <defs>
       <path d="M 31.78125 66.40625 
Q 24.171875 66.40625 20.328125 58.90625 
Q 16.5 51.421875 16.5 36.375 
Q 16.5 21.390625 20.328125 13.890625 
Q 24.171875 6.390625 31.78125 6.390625 
Q 39.453125 6.390625 43.28125 13.890625 
Q 47.125 21.390625 47.125 36.375 
Q 47.125 51.421875 43.28125 58.90625 
Q 39.453125 66.40625 31.78125 66.40625 
z
M 31.78125 74.21875 
Q 44.046875 74.21875 50.515625 64.515625 
Q 56.984375 54.828125 56.984375 36.375 
Q 56.984375 17.96875 50.515625 8.265625 
Q 44.046875 -1.421875 31.78125 -1.421875 
Q 19.53125 -1.421875 13.0625 8.265625 
Q 6.59375 17.96875 6.59375 36.375 
Q 6.59375 54.828125 13.0625 64.515625 
Q 19.53125 74.21875 31.78125 74.21875 
z
" id="DejaVuSans-30"/>
      </defs>
      <g transform="translate(64.517783 266.598437)scale(0.1 -0.1)">
       <use xlink:href="#DejaVuSans-30"/>
      </g>
     </g>
    </g>
    <g id="xtick_2">
     <g id="line2d_2">
      <g>
       <use style="stroke:#000000;stroke-width:0.8;" x="105.933105" xlink:href="#m5a0d46215d" y="252"/>
      </g>
     </g>
     <g id="text_2">
      <!-- 25 -->
      <defs>
       <path d="M 19.1875 8.296875 
L 53.609375 8.296875 
L 53.609375 0 
L 7.328125 0 
L 7.328125 8.296875 
Q 12.9375 14.109375 22.625 23.890625 
Q 32.328125 33.6875 34.8125 36.53125 
Q 39.546875 41.84375 41.421875 45.53125 
Q 43.3125 49.21875 43.3125 52.78125 
Q 43.3125 58.59375 39.234375 62.25 
Q 35.15625 65.921875 28.609375 65.921875 
Q 23.96875 65.921875 18.8125 64.3125 
Q 13.671875 62.703125 7.8125 59.421875 
L 7.8125 69.390625 
Q 13.765625 71.78125 18.9375 73 
Q 24.125 74.21875 28.421875 74.21875 
Q 39.75 74.21875 46.484375 68.546875 
Q 53.21875 62.890625 53.21875 53.421875 
Q 53.21875 48.921875 51.53125 44.890625 
Q 49.859375 40.875 45.40625 35.40625 
Q 44.1875 33.984375 37.640625 27.21875 
Q 31.109375 20.453125 19.1875 8.296875 
z
" id="DejaVuSans-32"/>
       <path d="M 10.796875 72.90625 
L 49.515625 72.90625 
L 49.515625 64.59375 
L 19.828125 64.59375 
L 19.828125 46.734375 
Q 21.96875 47.46875 24.109375 47.828125 
Q 26.265625 48.1875 28.421875 48.1875 
Q 40.625 48.1875 47.75 41.5 
Q 54.890625 34.8125 54.890625 23.390625 
Q 54.890625 11.625 47.5625 5.09375 
Q 40.234375 -1.421875 26.90625 -1.421875 
Q 22.3125 -1.421875 17.546875 -0.640625 
Q 12.796875 0.140625 7.71875 1.703125 
L 7.71875 11.625 
Q 12.109375 9.234375 16.796875 8.0625 
Q 21.484375 6.890625 26.703125 6.890625 
Q 35.15625 6.890625 40.078125 11.328125 
Q 45.015625 15.765625 45.015625 23.390625 
Q 45.015625 31 40.078125 35.4375 
Q 35.15625 39.890625 26.703125 39.890625 
Q 22.75 39.890625 18.8125 39.015625 
Q 14.890625 38.140625 10.796875 36.28125 
z
" id="DejaVuSans-35"/>
      </defs>
      <g transform="translate(99.570605 266.598437)scale(0.1 -0.1)">
       <use xlink:href="#DejaVuSans-32"/>
       <use x="63.623047" xlink:href="#DejaVuSans-35"/>
      </g>
     </g>
    </g>
    <g id="xtick_3">
     <g id="line2d_3">
      <g>
       <use style="stroke:#000000;stroke-width:0.8;" x="144.167176" xlink:href="#m5a0d46215d" y="252"/>
      </g>
     </g>
     <g id="text_3">
      <!-- 50 -->
      <g transform="translate(137.804676 266.598437)scale(0.1 -0.1)">
       <use xlink:href="#DejaVuSans-35"/>
       <use x="63.623047" xlink:href="#DejaVuSans-30"/>
      </g>
     </g>
    </g>
    <g id="xtick_4">
     <g id="line2d_4">
      <g>
       <use style="stroke:#000000;stroke-width:0.8;" x="182.401247" xlink:href="#m5a0d46215d" y="252"/>
      </g>
     </g>
     <g id="text_4">
      <!-- 75 -->
      <defs>
       <path d="M 8.203125 72.90625 
L 55.078125 72.90625 
L 55.078125 68.703125 
L 28.609375 0 
L 18.3125 0 
L 43.21875 64.59375 
L 8.203125 64.59375 
z
" id="DejaVuSans-37"/>
      </defs>
      <g transform="translate(176.038747 266.598437)scale(0.1 -0.1)">
       <use xlink:href="#DejaVuSans-37"/>
       <use x="63.623047" xlink:href="#DejaVuSans-35"/>
      </g>
     </g>
    </g>
    <g id="xtick_5">
     <g id="line2d_5">
      <g>
       <use style="stroke:#000000;stroke-width:0.8;" x="220.635319" xlink:href="#m5a0d46215d" y="252"/>
      </g>
     </g>
     <g id="text_5">
      <!-- 100 -->
      <defs>
       <path d="M 12.40625 8.296875 
L 28.515625 8.296875 
L 28.515625 63.921875 
L 10.984375 60.40625 
L 10.984375 69.390625 
L 28.421875 72.90625 
L 38.28125 72.90625 
L 38.28125 8.296875 
L 54.390625 8.296875 
L 54.390625 0 
L 12.40625 0 
z
" id="DejaVuSans-31"/>
      </defs>
      <g transform="translate(211.091569 266.598437)scale(0.1 -0.1)">
       <use xlink:href="#DejaVuSans-31"/>
       <use x="63.623047" xlink:href="#DejaVuSans-30"/>
       <use x="127.246094" xlink:href="#DejaVuSans-30"/>
      </g>
     </g>
    </g>
    <g id="xtick_6">
     <g id="line2d_6">
      <g>
       <use style="stroke:#000000;stroke-width:0.8;" x="258.86939" xlink:href="#m5a0d46215d" y="252"/>
      </g>
     </g>
     <g id="text_6">
      <!-- 125 -->
      <g transform="translate(249.32564 266.598437)scale(0.1 -0.1)">
       <use xlink:href="#DejaVuSans-31"/>
       <use x="63.623047" xlink:href="#DejaVuSans-32"/>
       <use x="127.246094" xlink:href="#DejaVuSans-35"/>
      </g>
     </g>
    </g>
    <g id="xtick_7">
     <g id="line2d_7">
      <g>
       <use style="stroke:#000000;stroke-width:0.8;" x="297.103461" xlink:href="#m5a0d46215d" y="252"/>
      </g>
     </g>
     <g id="text_7">
      <!-- 150 -->
      <g transform="translate(287.559711 266.598437)scale(0.1 -0.1)">
       <use xlink:href="#DejaVuSans-31"/>
       <use x="63.623047" xlink:href="#DejaVuSans-35"/>
       <use x="127.246094" xlink:href="#DejaVuSans-30"/>
      </g>
     </g>
    </g>
    <g id="xtick_8">
     <g id="line2d_8">
      <g>
       <use style="stroke:#000000;stroke-width:0.8;" x="335.337533" xlink:href="#m5a0d46215d" y="252"/>
      </g>
     </g>
     <g id="text_8">
      <!-- 175 -->
      <g transform="translate(325.793783 266.598437)scale(0.1 -0.1)">
       <use xlink:href="#DejaVuSans-31"/>
       <use x="63.623047" xlink:href="#DejaVuSans-37"/>
       <use x="127.246094" xlink:href="#DejaVuSans-35"/>
      </g>
     </g>
    </g>
    <g id="xtick_9">
     <g id="line2d_9">
      <g>
       <use style="stroke:#000000;stroke-width:0.8;" x="373.571604" xlink:href="#m5a0d46215d" y="252"/>
      </g>
     </g>
     <g id="text_9">
      <!-- 200 -->
      <g transform="translate(364.027854 266.598437)scale(0.1 -0.1)">
       <use xlink:href="#DejaVuSans-32"/>
       <use x="63.623047" xlink:href="#DejaVuSans-30"/>
       <use x="127.246094" xlink:href="#DejaVuSans-30"/>
      </g>
     </g>
    </g>
    <g id="text_10">
     <!-- Chamber -->
     <defs>
      <path d="M 64.40625 67.28125 
L 64.40625 56.890625 
Q 59.421875 61.53125 53.78125 63.8125 
Q 48.140625 66.109375 41.796875 66.109375 
Q 29.296875 66.109375 22.65625 58.46875 
Q 16.015625 50.828125 16.015625 36.375 
Q 16.015625 21.96875 22.65625 14.328125 
Q 29.296875 6.6875 41.796875 6.6875 
Q 48.140625 6.6875 53.78125 8.984375 
Q 59.421875 11.28125 64.40625 15.921875 
L 64.40625 5.609375 
Q 59.234375 2.09375 53.4375 0.328125 
Q 47.65625 -1.421875 41.21875 -1.421875 
Q 24.65625 -1.421875 15.125 8.703125 
Q 5.609375 18.84375 5.609375 36.375 
Q 5.609375 53.953125 15.125 64.078125 
Q 24.65625 74.21875 41.21875 74.21875 
Q 47.75 74.21875 53.53125 72.484375 
Q 59.328125 70.75 64.40625 67.28125 
z
" id="DejaVuSans-43"/>
      <path d="M 54.890625 33.015625 
L 54.890625 0 
L 45.90625 0 
L 45.90625 32.71875 
Q 45.90625 40.484375 42.875 44.328125 
Q 39.84375 48.1875 33.796875 48.1875 
Q 26.515625 48.1875 22.3125 43.546875 
Q 18.109375 38.921875 18.109375 30.90625 
L 18.109375 0 
L 9.078125 0 
L 9.078125 75.984375 
L 18.109375 75.984375 
L 18.109375 46.1875 
Q 21.34375 51.125 25.703125 53.5625 
Q 30.078125 56 35.796875 56 
Q 45.21875 56 50.046875 50.171875 
Q 54.890625 44.34375 54.890625 33.015625 
z
" id="DejaVuSans-68"/>
      <path d="M 34.28125 27.484375 
Q 23.390625 27.484375 19.1875 25 
Q 14.984375 22.515625 14.984375 16.5 
Q 14.984375 11.71875 18.140625 8.90625 
Q 21.296875 6.109375 26.703125 6.109375 
Q 34.1875 6.109375 38.703125 11.40625 
Q 43.21875 16.703125 43.21875 25.484375 
L 43.21875 27.484375 
z
M 52.203125 31.203125 
L 52.203125 0 
L 43.21875 0 
L 43.21875 8.296875 
Q 40.140625 3.328125 35.546875 0.953125 
Q 30.953125 -1.421875 24.3125 -1.421875 
Q 15.921875 -1.421875 10.953125 3.296875 
Q 6 8.015625 6 15.921875 
Q 6 25.140625 12.171875 29.828125 
Q 18.359375 34.515625 30.609375 34.515625 
L 43.21875 34.515625 
L 43.21875 35.40625 
Q 43.21875 41.609375 39.140625 45 
Q 35.0625 48.390625 27.6875 48.390625 
Q 23 48.390625 18.546875 47.265625 
Q 14.109375 46.140625 10.015625 43.890625 
L 10.015625 52.203125 
Q 14.9375 54.109375 19.578125 55.046875 
Q 24.21875 56 28.609375 56 
Q 40.484375 56 46.34375 49.84375 
Q 52.203125 43.703125 52.203125 31.203125 
z
" id="DejaVuSans-61"/>
      <path d="M 52 44.1875 
Q 55.375 50.25 60.0625 53.125 
Q 64.75 56 71.09375 56 
Q 79.640625 56 84.28125 50.015625 
Q 88.921875 44.046875 88.921875 33.015625 
L 88.921875 0 
L 79.890625 0 
L 79.890625 32.71875 
Q 79.890625 40.578125 77.09375 44.375 
Q 74.3125 48.1875 68.609375 48.1875 
Q 61.625 48.1875 57.5625 43.546875 
Q 53.515625 38.921875 53.515625 30.90625 
L 53.515625 0 
L 44.484375 0 
L 44.484375 32.71875 
Q 44.484375 40.625 41.703125 44.40625 
Q 38.921875 48.1875 33.109375 48.1875 
Q 26.21875 48.1875 22.15625 43.53125 
Q 18.109375 38.875 18.109375 30.90625 
L 18.109375 0 
L 9.078125 0 
L 9.078125 54.6875 
L 18.109375 54.6875 
L 18.109375 46.1875 
Q 21.1875 51.21875 25.484375 53.609375 
Q 29.78125 56 35.6875 56 
Q 41.65625 56 45.828125 52.96875 
Q 50 49.953125 52 44.1875 
z
" id="DejaVuSans-6d"/>
      <path d="M 48.6875 27.296875 
Q 48.6875 37.203125 44.609375 42.84375 
Q 40.53125 48.484375 33.40625 48.484375 
Q 26.265625 48.484375 22.1875 42.84375 
Q 18.109375 37.203125 18.109375 27.296875 
Q 18.109375 17.390625 22.1875 11.75 
Q 26.265625 6.109375 33.40625 6.109375 
Q 40.53125 6.109375 44.609375 11.75 
Q 48.6875 17.390625 48.6875 27.296875 
z
M 18.109375 46.390625 
Q 20.953125 51.265625 25.265625 53.625 
Q 29.59375 56 35.59375 56 
Q 45.5625 56 51.78125 48.09375 
Q 58.015625 40.1875 58.015625 27.296875 
Q 58.015625 14.40625 51.78125 6.484375 
Q 45.5625 -1.421875 35.59375 -1.421875 
Q 29.59375 -1.421875 25.265625 0.953125 
Q 20.953125 3.328125 18.109375 8.203125 
L 18.109375 0 
L 9.078125 0 
L 9.078125 75.984375 
L 18.109375 75.984375 
z
" id="DejaVuSans-62"/>
      <path d="M 56.203125 29.59375 
L 56.203125 25.203125 
L 14.890625 25.203125 
Q 15.484375 15.921875 20.484375 11.0625 
Q 25.484375 6.203125 34.421875 6.203125 
Q 39.59375 6.203125 44.453125 7.46875 
Q 49.3125 8.734375 54.109375 11.28125 
L 54.109375 2.78125 
Q 49.265625 0.734375 44.1875 -0.34375 
Q 39.109375 -1.421875 33.890625 -1.421875 
Q 20.796875 -1.421875 13.15625 6.1875 
Q 5.515625 13.8125 5.515625 26.8125 
Q 5.515625 40.234375 12.765625 48.109375 
Q 20.015625 56 32.328125 56 
Q 43.359375 56 49.78125 48.890625 
Q 56.203125 41.796875 56.203125 29.59375 
z
M 47.21875 32.234375 
Q 47.125 39.59375 43.09375 43.984375 
Q 39.0625 48.390625 32.421875 48.390625 
Q 24.90625 48.390625 20.390625 44.140625 
Q 15.875 39.890625 15.1875 32.171875 
z
" id="DejaVuSans-65"/>
      <path d="M 41.109375 46.296875 
Q 39.59375 47.171875 37.8125 47.578125 
Q 36.03125 48 33.890625 48 
Q 26.265625 48 22.1875 43.046875 
Q 18.109375 38.09375 18.109375 28.8125 
L 18.109375 0 
L 9.078125 0 
L 9.078125 54.6875 
L 18.109375 54.6875 
L 18.109375 46.1875 
Q 20.953125 51.171875 25.484375 53.578125 
Q 30.03125 56 36.53125 56 
Q 37.453125 56 38.578125 55.875 
Q 39.703125 55.765625 41.0625 55.515625 
z
" id="DejaVuSans-72"/>
     </defs>
     <g transform="translate(198.499219 280.276563)scale(0.1 -0.1)">
      <use xlink:href="#DejaVuSans-43"/>
      <use x="69.824219" xlink:href="#DejaVuSans-68"/>
      <use x="133.203125" xlink:href="#DejaVuSans-61"/>
      <use x="194.482422" xlink:href="#DejaVuSans-6d"/>
      <use x="291.894531" xlink:href="#DejaVuSans-62"/>
      <use x="355.371094" xlink:href="#DejaVuSans-65"/>
      <use x="416.894531" xlink:href="#DejaVuSans-72"/>
     </g>
    </g>
   </g>
   <g id="matplotlib.axis_2">
    <g id="ytick_1">
     <g id="line2d_10">
      <defs>
       <path d="M 0 0 
L -3.5 0 
" id="m7300ce611c" style="stroke:#000000;stroke-width:0.8;"/>
      </defs>
      <g>
       <use style="stroke:#000000;stroke-width:0.8;" x="54" xlink:href="#m7300ce611c" y="225.747253"/>
      </g>
     </g>
     <g id="text_11">
      <!-- 500 -->
      <g transform="translate(27.9125 229.546472)scale(0.1 -0.1)">
       <use xlink:href="#DejaVuSans-35"/>
       <use x="63.623047" xlink:href="#DejaVuSans-30"/>
       <use x="127.246094" xlink:href="#DejaVuSans-30"/>
      </g>
     </g>
    </g>
    <g id="ytick_2">
     <g id="line2d_11">
      <g>
       <use style="stroke:#000000;stroke-width:0.8;" x="54" xlink:href="#m7300ce611c" y="197.232788"/>
      </g>
     </g>
     <g id="text_12">
      <!-- 520 -->
      <g transform="translate(27.9125 201.032006)scale(0.1 -0.1)">
       <use xlink:href="#DejaVuSans-35"/>
       <use x="63.623047" xlink:href="#DejaVuSans-32"/>
       <use x="127.246094" xlink:href="#DejaVuSans-30"/>
      </g>
     </g>
    </g>
    <g id="ytick_3">
     <g id="line2d_12">
      <g>
       <use style="stroke:#000000;stroke-width:0.8;" x="54" xlink:href="#m7300ce611c" y="168.718322"/>
      </g>
     </g>
     <g id="text_13">
      <!-- 540 -->
      <defs>
       <path d="M 37.796875 64.3125 
L 12.890625 25.390625 
L 37.796875 25.390625 
z
M 35.203125 72.90625 
L 47.609375 72.90625 
L 47.609375 25.390625 
L 58.015625 25.390625 
L 58.015625 17.1875 
L 47.609375 17.1875 
L 47.609375 0 
L 37.796875 0 
L 37.796875 17.1875 
L 4.890625 17.1875 
L 4.890625 26.703125 
z
" id="DejaVuSans-34"/>
      </defs>
      <g transform="translate(27.9125 172.517541)scale(0.1 -0.1)">
       <use xlink:href="#DejaVuSans-35"/>
       <use x="63.623047" xlink:href="#DejaVuSans-34"/>
       <use x="127.246094" xlink:href="#DejaVuSans-30"/>
      </g>
     </g>
    </g>
    <g id="ytick_4">
     <g id="line2d_13">
      <g>
       <use style="stroke:#000000;stroke-width:0.8;" x="54" xlink:href="#m7300ce611c" y="140.203857"/>
      </g>
     </g>
     <g id="text_14">
      <!-- 560 -->
      <defs>
       <path d="M 33.015625 40.375 
Q 26.375 40.375 22.484375 35.828125 
Q 18.609375 31.296875 18.609375 23.390625 
Q 18.609375 15.53125 22.484375 10.953125 
Q 26.375 6.390625 33.015625 6.390625 
Q 39.65625 6.390625 43.53125 10.953125 
Q 47.40625 15.53125 47.40625 23.390625 
Q 47.40625 31.296875 43.53125 35.828125 
Q 39.65625 40.375 33.015625 40.375 
z
M 52.59375 71.296875 
L 52.59375 62.3125 
Q 48.875 64.0625 45.09375 64.984375 
Q 41.3125 65.921875 37.59375 65.921875 
Q 27.828125 65.921875 22.671875 59.328125 
Q 17.53125 52.734375 16.796875 39.40625 
Q 19.671875 43.65625 24.015625 45.921875 
Q 28.375 48.1875 33.59375 48.1875 
Q 44.578125 48.1875 50.953125 41.515625 
Q 57.328125 34.859375 57.328125 23.390625 
Q 57.328125 12.15625 50.6875 5.359375 
Q 44.046875 -1.421875 33.015625 -1.421875 
Q 20.359375 -1.421875 13.671875 8.265625 
Q 6.984375 17.96875 6.984375 36.375 
Q 6.984375 53.65625 15.1875 63.9375 
Q 23.390625 74.21875 37.203125 74.21875 
Q 40.921875 74.21875 44.703125 73.484375 
Q 48.484375 72.75 52.59375 71.296875 
z
" id="DejaVuSans-36"/>
      </defs>
      <g transform="translate(27.9125 144.003076)scale(0.1 -0.1)">
       <use xlink:href="#DejaVuSans-35"/>
       <use x="63.623047" xlink:href="#DejaVuSans-36"/>
       <use x="127.246094" xlink:href="#DejaVuSans-30"/>
      </g>
     </g>
    </g>
    <g id="ytick_5">
     <g id="line2d_14">
      <g>
       <use style="stroke:#000000;stroke-width:0.8;" x="54" xlink:href="#m7300ce611c" y="111.689391"/>
      </g>
     </g>
     <g id="text_15">
      <!-- 580 -->
      <defs>
       <path d="M 31.78125 34.625 
Q 24.75 34.625 20.71875 30.859375 
Q 16.703125 27.09375 16.703125 20.515625 
Q 16.703125 13.921875 20.71875 10.15625 
Q 24.75 6.390625 31.78125 6.390625 
Q 38.8125 6.390625 42.859375 10.171875 
Q 46.921875 13.96875 46.921875 20.515625 
Q 46.921875 27.09375 42.890625 30.859375 
Q 38.875 34.625 31.78125 34.625 
z
M 21.921875 38.8125 
Q 15.578125 40.375 12.03125 44.71875 
Q 8.5 49.078125 8.5 55.328125 
Q 8.5 64.0625 14.71875 69.140625 
Q 20.953125 74.21875 31.78125 74.21875 
Q 42.671875 74.21875 48.875 69.140625 
Q 55.078125 64.0625 55.078125 55.328125 
Q 55.078125 49.078125 51.53125 44.71875 
Q 48 40.375 41.703125 38.8125 
Q 48.828125 37.15625 52.796875 32.3125 
Q 56.78125 27.484375 56.78125 20.515625 
Q 56.78125 9.90625 50.3125 4.234375 
Q 43.84375 -1.421875 31.78125 -1.421875 
Q 19.734375 -1.421875 13.25 4.234375 
Q 6.78125 9.90625 6.78125 20.515625 
Q 6.78125 27.484375 10.78125 32.3125 
Q 14.796875 37.15625 21.921875 38.8125 
z
M 18.3125 54.390625 
Q 18.3125 48.734375 21.84375 45.5625 
Q 25.390625 42.390625 31.78125 42.390625 
Q 38.140625 42.390625 41.71875 45.5625 
Q 45.3125 48.734375 45.3125 54.390625 
Q 45.3125 60.0625 41.71875 63.234375 
Q 38.140625 66.40625 31.78125 66.40625 
Q 25.390625 66.40625 21.84375 63.234375 
Q 18.3125 60.0625 18.3125 54.390625 
z
" id="DejaVuSans-38"/>
      </defs>
      <g transform="translate(27.9125 115.48861)scale(0.1 -0.1)">
       <use xlink:href="#DejaVuSans-35"/>
       <use x="63.623047" xlink:href="#DejaVuSans-38"/>
       <use x="127.246094" xlink:href="#DejaVuSans-30"/>
      </g>
     </g>
    </g>
    <g id="ytick_6">
     <g id="line2d_15">
      <g>
       <use style="stroke:#000000;stroke-width:0.8;" x="54" xlink:href="#m7300ce611c" y="83.174926"/>
      </g>
     </g>
     <g id="text_16">
      <!-- 600 -->
      <g transform="translate(27.9125 86.974145)scale(0.1 -0.1)">
       <use xlink:href="#DejaVuSans-36"/>
       <use x="63.623047" xlink:href="#DejaVuSans-30"/>
       <use x="127.246094" xlink:href="#DejaVuSans-30"/>
      </g>
     </g>
    </g>
    <g id="ytick_7">
     <g id="line2d_16">
      <g>
       <use style="stroke:#000000;stroke-width:0.8;" x="54" xlink:href="#m7300ce611c" y="54.660461"/>
      </g>
     </g>
     <g id="text_17">
      <!-- 620 -->
      <g transform="translate(27.9125 58.459679)scale(0.1 -0.1)">
       <use xlink:href="#DejaVuSans-36"/>
       <use x="63.623047" xlink:href="#DejaVuSans-32"/>
       <use x="127.246094" xlink:href="#DejaVuSans-30"/>
      </g>
     </g>
    </g>
    <g id="text_18">
     <!-- Normalized Intensity -->
     <defs>
      <path d="M 9.8125 72.90625 
L 23.09375 72.90625 
L 55.421875 11.921875 
L 55.421875 72.90625 
L 64.984375 72.90625 
L 64.984375 0 
L 51.703125 0 
L 19.390625 60.984375 
L 19.390625 0 
L 9.8125 0 
z
" id="DejaVuSans-4e"/>
      <path d="M 30.609375 48.390625 
Q 23.390625 48.390625 19.1875 42.75 
Q 14.984375 37.109375 14.984375 27.296875 
Q 14.984375 17.484375 19.15625 11.84375 
Q 23.34375 6.203125 30.609375 6.203125 
Q 37.796875 6.203125 41.984375 11.859375 
Q 46.1875 17.53125 46.1875 27.296875 
Q 46.1875 37.015625 41.984375 42.703125 
Q 37.796875 48.390625 30.609375 48.390625 
z
M 30.609375 56 
Q 42.328125 56 49.015625 48.375 
Q 55.71875 40.765625 55.71875 27.296875 
Q 55.71875 13.875 49.015625 6.21875 
Q 42.328125 -1.421875 30.609375 -1.421875 
Q 18.84375 -1.421875 12.171875 6.21875 
Q 5.515625 13.875 5.515625 27.296875 
Q 5.515625 40.765625 12.171875 48.375 
Q 18.84375 56 30.609375 56 
z
" id="DejaVuSans-6f"/>
      <path d="M 9.421875 75.984375 
L 18.40625 75.984375 
L 18.40625 0 
L 9.421875 0 
z
" id="DejaVuSans-6c"/>
      <path d="M 9.421875 54.6875 
L 18.40625 54.6875 
L 18.40625 0 
L 9.421875 0 
z
M 9.421875 75.984375 
L 18.40625 75.984375 
L 18.40625 64.59375 
L 9.421875 64.59375 
z
" id="DejaVuSans-69"/>
      <path d="M 5.515625 54.6875 
L 48.1875 54.6875 
L 48.1875 46.484375 
L 14.40625 7.171875 
L 48.1875 7.171875 
L 48.1875 0 
L 4.296875 0 
L 4.296875 8.203125 
L 38.09375 47.515625 
L 5.515625 47.515625 
z
" id="DejaVuSans-7a"/>
      <path d="M 45.40625 46.390625 
L 45.40625 75.984375 
L 54.390625 75.984375 
L 54.390625 0 
L 45.40625 0 
L 45.40625 8.203125 
Q 42.578125 3.328125 38.25 0.953125 
Q 33.9375 -1.421875 27.875 -1.421875 
Q 17.96875 -1.421875 11.734375 6.484375 
Q 5.515625 14.40625 5.515625 27.296875 
Q 5.515625 40.1875 11.734375 48.09375 
Q 17.96875 56 27.875 56 
Q 33.9375 56 38.25 53.625 
Q 42.578125 51.265625 45.40625 46.390625 
z
M 14.796875 27.296875 
Q 14.796875 17.390625 18.875 11.75 
Q 22.953125 6.109375 30.078125 6.109375 
Q 37.203125 6.109375 41.296875 11.75 
Q 45.40625 17.390625 45.40625 27.296875 
Q 45.40625 37.203125 41.296875 42.84375 
Q 37.203125 48.484375 30.078125 48.484375 
Q 22.953125 48.484375 18.875 42.84375 
Q 14.796875 37.203125 14.796875 27.296875 
z
" id="DejaVuSans-64"/>
      <path id="DejaVuSans-20"/>
      <path d="M 9.8125 72.90625 
L 19.671875 72.90625 
L 19.671875 0 
L 9.8125 0 
z
" id="DejaVuSans-49"/>
      <path d="M 54.890625 33.015625 
L 54.890625 0 
L 45.90625 0 
L 45.90625 32.71875 
Q 45.90625 40.484375 42.875 44.328125 
Q 39.84375 48.1875 33.796875 48.1875 
Q 26.515625 48.1875 22.3125 43.546875 
Q 18.109375 38.921875 18.109375 30.90625 
L 18.109375 0 
L 9.078125 0 
L 9.078125 54.6875 
L 18.109375 54.6875 
L 18.109375 46.1875 
Q 21.34375 51.125 25.703125 53.5625 
Q 30.078125 56 35.796875 56 
Q 45.21875 56 50.046875 50.171875 
Q 54.890625 44.34375 54.890625 33.015625 
z
" id="DejaVuSans-6e"/>
      <path d="M 18.3125 70.21875 
L 18.3125 54.6875 
L 36.8125 54.6875 
L 36.8125 47.703125 
L 18.3125 47.703125 
L 18.3125 18.015625 
Q 18.3125 11.328125 20.140625 9.421875 
Q 21.96875 7.515625 27.59375 7.515625 
L 36.8125 7.515625 
L 36.8125 0 
L 27.59375 0 
Q 17.1875 0 13.234375 3.875 
Q 9.28125 7.765625 9.28125 18.015625 
L 9.28125 47.703125 
L 2.6875 47.703125 
L 2.6875 54.6875 
L 9.28125 54.6875 
L 9.28125 70.21875 
z
" id="DejaVuSans-74"/>
      <path d="M 44.28125 53.078125 
L 44.28125 44.578125 
Q 40.484375 46.53125 36.375 47.5 
Q 32.28125 48.484375 27.875 48.484375 
Q 21.1875 48.484375 17.84375 46.4375 
Q 14.5 44.390625 14.5 40.28125 
Q 14.5 37.15625 16.890625 35.375 
Q 19.28125 33.59375 26.515625 31.984375 
L 29.59375 31.296875 
Q 39.15625 29.25 43.1875 25.515625 
Q 47.21875 21.78125 47.21875 15.09375 
Q 47.21875 7.46875 41.1875 3.015625 
Q 35.15625 -1.421875 24.609375 -1.421875 
Q 20.21875 -1.421875 15.453125 -0.5625 
Q 10.6875 0.296875 5.421875 2 
L 5.421875 11.28125 
Q 10.40625 8.6875 15.234375 7.390625 
Q 20.0625 6.109375 24.8125 6.109375 
Q 31.15625 6.109375 34.5625 8.28125 
Q 37.984375 10.453125 37.984375 14.40625 
Q 37.984375 18.0625 35.515625 20.015625 
Q 33.0625 21.96875 24.703125 23.78125 
L 21.578125 24.515625 
Q 13.234375 26.265625 9.515625 29.90625 
Q 5.8125 33.546875 5.8125 39.890625 
Q 5.8125 47.609375 11.28125 51.796875 
Q 16.75 56 26.8125 56 
Q 31.78125 56 36.171875 55.265625 
Q 40.578125 54.546875 44.28125 53.078125 
z
" id="DejaVuSans-73"/>
      <path d="M 32.171875 -5.078125 
Q 28.375 -14.84375 24.75 -17.8125 
Q 21.140625 -20.796875 15.09375 -20.796875 
L 7.90625 -20.796875 
L 7.90625 -13.28125 
L 13.1875 -13.28125 
Q 16.890625 -13.28125 18.9375 -11.515625 
Q 21 -9.765625 23.484375 -3.21875 
L 25.09375 0.875 
L 2.984375 54.6875 
L 12.5 54.6875 
L 29.59375 11.921875 
L 46.6875 54.6875 
L 56.203125 54.6875 
z
" id="DejaVuSans-79"/>
     </defs>
     <g transform="translate(21.832812 195.07375)rotate(-90)scale(0.1 -0.1)">
      <use xlink:href="#DejaVuSans-4e"/>
      <use x="74.804688" xlink:href="#DejaVuSans-6f"/>
      <use x="135.986328" xlink:href="#DejaVuSans-72"/>
      <use x="177.083984" xlink:href="#DejaVuSans-6d"/>
      <use x="274.496094" xlink:href="#DejaVuSans-61"/>
      <use x="335.775391" xlink:href="#DejaVuSans-6c"/>
      <use x="363.558594" xlink:href="#DejaVuSans-69"/>
      <use x="391.341797" xlink:href="#DejaVuSans-7a"/>
      <use x="443.832031" xlink:href="#DejaVuSans-65"/>
      <use x="505.355469" xlink:href="#DejaVuSans-64"/>
      <use x="568.832031" xlink:href="#DejaVuSans-20"/>
      <use x="600.619141" xlink:href="#DejaVuSans-49"/>
      <use x="630.111328" xlink:href="#DejaVuSans-6e"/>
      <use x="693.490234" xlink:href="#DejaVuSans-74"/>
      <use x="732.699219" xlink:href="#DejaVuSans-65"/>
      <use x="794.222656" xlink:href="#DejaVuSans-6e"/>
      <use x="857.601562" xlink:href="#DejaVuSans-73"/>
      <use x="909.701172" xlink:href="#DejaVuSans-69"/>
      <use x="937.484375" xlink:href="#DejaVuSans-74"/>
      <use x="976.693359" xlink:href="#DejaVuSans-79"/>
     </g>
    </g>
   </g>
   <g id="patch_3">
    <path d="M 54 252 
L 54 34.56 
" style="fill:none;stroke:#000000;stroke-linecap:square;stroke-linejoin:miter;stroke-width:0.8;"/>
   </g>
   <g id="patch_4">
    <path d="M 388.8 252 
L 388.8 34.56 
" style="fill:none;stroke:#000000;stroke-linecap:square;stroke-linejoin:miter;stroke-width:0.8;"/>
   </g>
   <g id="patch_5">
    <path d="M 54 252 
L 388.8 252 
" style="fill:none;stroke:#000000;stroke-linecap:square;stroke-linejoin:miter;stroke-width:0.8;"/>
   </g>
   <g id="patch_6">
    <path d="M 54 34.56 
L 388.8 34.56 
" style="fill:none;stroke:#000000;stroke-linecap:square;stroke-linejoin:miter;stroke-width:0.8;"/>
   </g>
  </g>
 </g>
 <defs>
  <clipPath id="p1a67f8cc7b">
   <rect height="217.44" width="334.8" x="54" y="34.56"/>
  </clipPath>
 </defs>
</svg>
